<svg width="186" height="60" viewBox="0 0 186 60" fill="none" xmlns="http://www.w3.org/2000/svg">
<g clip-path="url(#clip0_1_10)">
<path d="M75.8815 26.0909H80.3872V39.1648C80.381 40.3897 80.0886 41.4607 79.51 42.3778C78.9314 43.2888 78.1312 43.9967 77.1095 44.5014C76.0938 45.0062 74.9182 45.2585 73.5825 45.2585C72.4007 45.2585 71.3266 45.0523 70.3602 44.6399C69.3999 44.2275 68.6336 43.5874 68.0612 42.7195C67.4949 41.8516 67.2148 40.7405 67.221 39.3864H71.7728C71.7913 39.8726 71.8836 40.2881 72.0498 40.6328C72.2222 40.9714 72.4591 41.2268 72.7607 41.3991C73.0624 41.5715 73.4224 41.6577 73.841 41.6577C74.278 41.6577 74.6473 41.5653 74.949 41.3807C75.2506 41.1899 75.4783 40.9098 75.6322 40.5405C75.7922 40.1712 75.8753 39.7126 75.8815 39.1648V26.0909ZM89.8763 45.2678C88.3867 45.2678 87.1064 44.9631 86.0354 44.3537C84.9706 43.7382 84.1488 42.8826 83.5702 41.7869C82.9978 40.6851 82.7116 39.4079 82.7116 37.9553C82.7116 36.4964 82.9978 35.2192 83.5702 34.1236C84.1488 33.0218 84.9706 32.1662 86.0354 31.5568C87.1064 30.9413 88.3867 30.6335 89.8763 30.6335C91.3659 30.6335 92.6431 30.9413 93.708 31.5568C94.779 32.1662 95.6008 33.0218 96.1732 34.1236C96.7518 35.2192 97.0411 36.4964 97.0411 37.9553C97.0411 39.4079 96.7518 40.6851 96.1732 41.7869C95.6008 42.8826 94.779 43.7382 93.708 44.3537C92.6431 44.9631 91.3659 45.2678 89.8763 45.2678ZM89.904 41.8608C90.4457 41.8608 90.9043 41.6946 91.2797 41.3622C91.6552 41.0298 91.9414 40.5682 92.1384 39.9773C92.3415 39.3864 92.4431 38.7031 92.4431 37.9276C92.4431 37.1397 92.3415 36.4503 92.1384 35.8594C91.9414 35.2685 91.6552 34.8068 91.2797 34.4744C90.9043 34.142 90.4457 33.9759 89.904 33.9759C89.3439 33.9759 88.8699 34.142 88.4822 34.4744C88.1005 34.8068 87.8081 35.2685 87.605 35.8594C87.4081 36.4503 87.3096 37.1397 87.3096 37.9276C87.3096 38.7031 87.4081 39.3864 87.605 39.9773C87.8081 40.5682 88.1005 41.0298 88.4822 41.3622C88.8699 41.6946 89.3439 41.8608 89.904 41.8608ZM99.354 45V26.0909H103.869V33.2464H103.961C104.146 32.8156 104.407 32.4001 104.746 32C105.091 31.5999 105.528 31.2737 106.057 31.0213C106.593 30.7628 107.233 30.6335 107.978 30.6335C108.962 30.6335 109.883 30.892 110.738 31.4091C111.6 31.9261 112.295 32.7232 112.825 33.8004C113.354 34.8776 113.619 36.2502 113.619 37.9183C113.619 39.5249 113.363 40.8698 112.853 41.9531C112.348 43.0365 111.665 43.849 110.803 44.3906C109.947 44.9323 108.996 45.2031 107.95 45.2031C107.236 45.2031 106.617 45.0862 106.094 44.8523C105.571 44.6184 105.131 44.3106 104.774 43.929C104.423 43.5473 104.152 43.138 103.961 42.701H103.823V45H99.354ZM103.777 37.9091C103.777 38.6723 103.878 39.3371 104.081 39.9034C104.291 40.4697 104.589 40.9098 104.977 41.2237C105.371 41.5315 105.842 41.6854 106.389 41.6854C106.943 41.6854 107.414 41.5315 107.802 41.2237C108.19 40.9098 108.482 40.4697 108.679 39.9034C108.882 39.3371 108.984 38.6723 108.984 37.9091C108.984 37.1458 108.882 36.4841 108.679 35.924C108.482 35.3639 108.19 34.9299 107.802 34.6222C107.42 34.3144 106.95 34.1605 106.389 34.1605C105.835 34.1605 105.365 34.3113 104.977 34.6129C104.589 34.9145 104.291 35.3454 104.081 35.9055C103.878 36.4657 103.777 37.1335 103.777 37.9091ZM114.325 29.8026V26.0909H130.307V29.8026H124.574V45H120.068V29.8026H114.325ZM131.067 45V30.8182H135.453V33.4034H135.6C135.859 32.4678 136.28 31.7723 136.865 31.3168C137.45 30.8551 138.13 30.6243 138.906 30.6243C139.115 30.6243 139.33 30.6397 139.552 30.6705C139.774 30.6951 139.98 30.7351 140.171 30.7905V34.7145C139.955 34.6406 139.672 34.5821 139.321 34.5391C138.976 34.496 138.669 34.4744 138.398 34.4744C137.862 34.4744 137.379 34.5945 136.948 34.8345C136.524 35.0684 136.188 35.3977 135.942 35.8224C135.702 36.241 135.582 36.7334 135.582 37.2997V45H131.067ZM145.475 45.2401C144.57 45.2401 143.767 45.0893 143.065 44.7876C142.37 44.4799 141.819 44.0182 141.412 43.4027C141.012 42.781 140.812 42.0024 140.812 41.0668C140.812 40.2789 140.951 39.6141 141.228 39.0724C141.505 38.5308 141.886 38.0907 142.373 37.7521C142.859 37.4136 143.419 37.1581 144.053 36.9858C144.687 36.8073 145.364 36.6873 146.084 36.6257C146.891 36.5518 147.54 36.4749 148.032 36.3949C148.525 36.3087 148.882 36.1887 149.103 36.0348C149.331 35.8748 149.445 35.6501 149.445 35.3608V35.3146C149.445 34.8407 149.282 34.4744 148.956 34.2159C148.629 33.9574 148.189 33.8281 147.635 33.8281C147.038 33.8281 146.558 33.9574 146.195 34.2159C145.832 34.4744 145.601 34.8314 145.503 35.2869L141.339 35.1392C141.462 34.2775 141.779 33.508 142.29 32.831C142.807 32.1477 143.514 31.6122 144.413 31.2244C145.318 30.8305 146.404 30.6335 147.672 30.6335C148.577 30.6335 149.411 30.7412 150.174 30.9567C150.938 31.166 151.602 31.4737 152.169 31.88C152.735 32.2801 153.172 32.7725 153.48 33.3572C153.794 33.942 153.951 34.6098 153.951 35.3608V45H149.704V43.0241H149.593C149.34 43.5043 149.017 43.9105 148.623 44.2429C148.236 44.5753 147.777 44.8246 147.248 44.9908C146.724 45.157 146.133 45.2401 145.475 45.2401ZM146.869 42.2855C147.355 42.2855 147.792 42.187 148.18 41.9901C148.574 41.7931 148.888 41.5223 149.122 41.1776C149.356 40.8267 149.473 40.4205 149.473 39.9588V38.6108C149.343 38.6785 149.187 38.7401 149.002 38.7955C148.823 38.8509 148.626 38.9032 148.411 38.9524C148.196 39.0017 147.974 39.0447 147.746 39.0817C147.518 39.1186 147.3 39.1525 147.091 39.1832C146.666 39.2509 146.303 39.3556 146.001 39.4972C145.706 39.6387 145.478 39.8234 145.318 40.0511C145.164 40.2727 145.087 40.5374 145.087 40.8452C145.087 41.313 145.253 41.67 145.586 41.9162C145.924 42.1624 146.352 42.2855 146.869 42.2855ZM163.331 45.2678C161.836 45.2678 160.552 44.96 159.481 44.3445C158.416 43.7289 157.598 42.8733 157.025 41.7777C156.453 40.6759 156.167 39.4018 156.167 37.9553C156.167 36.5026 156.453 35.2285 157.025 34.1328C157.604 33.031 158.426 32.1723 159.491 31.5568C160.562 30.9413 161.839 30.6335 163.322 30.6335C164.633 30.6335 165.775 30.8705 166.748 31.3445C167.726 31.8184 168.49 32.4893 169.037 33.3572C169.591 34.219 169.884 35.2315 169.915 36.3949H165.695C165.609 35.6686 165.363 35.0992 164.956 34.6868C164.556 34.2744 164.033 34.0682 163.387 34.0682C162.864 34.0682 162.405 34.2159 162.011 34.5114C161.617 34.8007 161.309 35.2315 161.088 35.804C160.872 36.3703 160.765 37.072 160.765 37.9091C160.765 38.7462 160.872 39.4541 161.088 40.0327C161.309 40.6051 161.617 41.0391 162.011 41.3345C162.405 41.6238 162.864 41.7685 163.387 41.7685C163.805 41.7685 164.175 41.6792 164.495 41.5007C164.821 41.3222 165.089 41.0606 165.298 40.7159C165.507 40.3651 165.64 39.9403 165.695 39.4418H169.915C169.871 40.6113 169.579 41.633 169.037 42.5071C168.502 43.3812 167.748 44.0613 166.775 44.5476C165.809 45.0277 164.661 45.2678 163.331 45.2678ZM176.297 41.2791L176.315 35.8963H176.943L180.932 30.8182H186.047L180.119 38.0938H178.928L176.297 41.2791ZM172.225 45V26.0909H176.74V45H172.225ZM181.033 45L177.322 39.1094L180.295 35.9055L186.25 45H181.033Z" fill="#059669"/>
<path d="M13 8.5H44C49.2467 8.5 53.5 12.7533 53.5 18V50C53.5 55.2467 49.2467 59.5 44 59.5H13C7.75329 59.5 3.5 55.2467 3.5 50V18C3.5 12.7533 7.75329 8.5 13 8.5Z" fill="#059669" stroke="#059669"/>
<path d="M30.1941 20.8182H36.4327V38.9205C36.4242 40.6165 36.0194 42.0994 35.2182 43.3693C34.4171 44.6307 33.3091 45.6108 31.8944 46.3097C30.4881 47.0085 28.8603 47.358 27.0108 47.358C25.3745 47.358 23.8873 47.0724 22.5492 46.5014C21.2196 45.9304 20.1586 45.044 19.3659 43.8423C18.5819 42.6406 18.1941 41.1023 18.2026 39.2273H24.5051C24.5307 39.9006 24.6586 40.4759 24.8887 40.9531C25.1273 41.4219 25.4554 41.7756 25.873 42.0142C26.2907 42.2528 26.7892 42.3722 27.3688 42.3722C27.9739 42.3722 28.4853 42.2443 28.9029 41.9886C29.3205 41.7244 29.6358 41.3366 29.8489 40.8253C30.0705 40.3139 30.1855 39.679 30.1941 38.9205V20.8182Z" fill="white"/>
</g>
<defs>
<clipPath id="clip0_1_10">
<rect width="186" height="60" fill="white"/>
</clipPath>
</defs>
</svg>
